<?xml version="1.0" encoding="utf-8"?>
<!-- Generator: Adobe Illustrator 26.3.1, SVG Export Plug-In . SVG Version: 6.00 Build 0)  -->
<svg version="1.1" id="Calque_1" xmlns="http://www.w3.org/2000/svg" xmlns:xlink="http://www.w3.org/1999/xlink" x="0px" y="0px" viewBox="0 0 285.6 278.48" style="enable-background:new 0 0 285.6 278.48;" xml:space="preserve">
	<style type="text/css">
	.st0{fill:#79227D;}
	.st1{fill:#3BB6A8;}
	.st2{fill:#F9BD1B;}
	.st3{fill:#E52320;}
</style>
	<g>
		<g>
			<g>
				<path class="st0" d="M73.8,18.09c-0.26-0.51,0.14-0.95,1.21-1.33c1.05-0.37,2.3-0.55,3.73-0.51s2.79,0.36,4.05,0.95
				c1.27,0.6,2.03,1.61,2.28,3.04c0.52,3.22,0.28,6.32-0.69,9.32c-0.97,3-2.28,5.6-3.93,7.8c-1.65,2.2-3.47,3.81-5.45,4.82
				c-1.99,1.01-3.83,1.1-5.52,0.26c-0.85-0.42-0.78-1.33,0.19-2.72c0.98-1.4,2.03-3.18,3.18-5.33c1.13-2.15,1.98-4.6,2.53-7.35
				C75.93,24.29,75.4,21.31,73.8,18.09z" />
				<path class="st0" d="M21.74,53.07c-0.56,0.09-0.86-0.43-0.89-1.56c-0.03-1.12,0.19-2.36,0.67-3.71s1.2-2.54,2.16-3.56
				c0.96-1.02,2.16-1.44,3.6-1.23c3.22,0.5,6.1,1.69,8.65,3.54c2.56,1.85,4.62,3.9,6.2,6.15s2.55,4.47,2.9,6.67
				c0.35,2.21-0.13,3.98-1.46,5.33c-0.66,0.67-1.51,0.33-2.53-1.02c-1.03-1.37-2.39-2.91-4.09-4.67c-1.69-1.74-3.76-3.31-6.2-4.67
				C28.3,52.96,25.3,52.55,21.74,53.07z" />
				<path class="st0" d="M38.93,113.4c-0.09,0.56-0.67,0.68-1.76,0.37c-1.07-0.32-2.18-0.91-3.32-1.79
				c-1.14-0.88-2.04-1.93-2.72-3.15c-0.67-1.23-0.7-2.5-0.06-3.8c1.47-2.91,3.49-5.28,6.03-7.13c2.55-1.86,5.14-3.19,7.76-4
				s5.04-1.04,7.24-0.7c2.21,0.35,3.75,1.36,4.62,3.04c0.44,0.84-0.15,1.54-1.75,2.09c-1.62,0.56-3.51,1.38-5.71,2.45
				c-2.18,1.07-4.31,2.56-6.36,4.46C40.85,107.12,39.53,109.85,38.93,113.4z" />
				<path class="st0" d="M101.61,115.69c0.51,0.26,0.44,0.85-0.19,1.79c-0.63,0.92-1.54,1.79-2.72,2.6s-2.47,1.35-3.84,1.62
				c-1.38,0.26-2.59-0.11-3.63-1.12c-2.31-2.3-3.94-4.95-4.92-7.94c-0.98-3-1.45-5.87-1.4-8.62c0.04-2.75,0.57-5.12,1.57-7.1
				c1.02-1.99,2.45-3.14,4.31-3.45c0.93-0.16,1.42,0.62,1.45,2.31c0.03,1.71,0.22,3.77,0.56,6.18c0.34,2.4,1.1,4.89,2.27,7.43
				C96.24,111.93,98.42,114.02,101.61,115.69z" />
				<path class="st0" d="M123.16,56.78c0.4-0.4,0.95-0.16,1.64,0.74c0.68,0.89,1.23,2.02,1.63,3.4c0.4,1.38,0.52,2.76,0.35,4.15
				c-0.18,1.39-0.9,2.43-2.19,3.11c-2.9,1.49-5.93,2.22-9.07,2.22c-3.15,0.01-6.03-0.44-8.63-1.33s-4.69-2.12-6.27-3.69
				c-1.58-1.58-2.23-3.3-1.95-5.17c0.14-0.94,1.02-1.16,2.65-0.67c1.64,0.5,3.65,0.95,6.05,1.37c2.39,0.42,4.99,0.46,7.77,0.13
				C117.92,60.73,120.59,59.3,123.16,56.78z" />
			</g>
		</g>
		<g>
			<path class="st1" d="M65.34,251.61c-0.47-2.19-0.02-4.81,1.36-7.83c1.37-3.02,3.13-6.2,5.3-9.53c2.16-3.33,4.48-6.71,7-10.12
			c2.51-3.41,4.72-6.63,6.65-9.66c1.93-3.02,3.26-5.71,4-8.06c0.75-2.36,0.45-4.17-0.88-5.42c-1.1-1.02-2.69-1.31-4.77-0.88
			s-4.36,1.35-6.83,2.77c-2.47,1.41-4.96,3.16-7.47,5.24c-2.51,2.08-4.71,4.21-6.59,6.41c-0.47,0.56-1.04,0.79-1.7,0.71
			c-0.67-0.08-1.24-0.35-1.7-0.82c-0.4-0.47-0.57-1.02-0.54-1.65c0.04-0.62,0.26-1.18,0.65-1.65c1.25-1.57,2.83-3.35,4.7-5.35
			c1.89-2,3.91-4,6.06-6.01s4.4-3.88,6.71-5.65c2.31-1.76,4.61-3.15,6.88-4.18c2.28-1.02,4.42-1.59,6.42-1.7
			c2-0.11,3.78,0.45,5.35,1.7c2.28,1.89,3.31,4.58,3.12,8.07c-0.2,3.5-1.1,7.38-2.71,11.66c-1.61,4.27-3.63,8.75-6.06,13.41
			c-2.43,4.67-4.74,9.09-6.94,13.25c-2.19,4.16-3.99,7.86-5.41,11.12c-1.41,3.26-1.93,5.63-1.53,7.12c0.24,0.71-0.13,1.34-1.11,1.89
			c-0.99,0.55-2.15,0.8-3.48,0.77c-1.33-0.04-2.64-0.47-3.94-1.29C66.58,255.08,65.73,253.65,65.34,251.61z" />
			<path class="st1" d="M61.69,169.39c0.47,2.19,0.02,4.81-1.36,7.83c-1.37,3.02-3.13,6.2-5.3,9.53c-2.16,3.33-4.48,6.71-7,10.12
			c-2.51,3.41-4.72,6.63-6.65,9.66c-1.93,3.02-3.26,5.71-4,8.06c-0.75,2.36-0.45,4.17,0.88,5.42c1.1,1.02,2.69,1.31,4.77,0.88
			c2.08-0.43,4.36-1.35,6.83-2.77c2.47-1.41,4.96-3.16,7.47-5.24s4.71-4.21,6.59-6.41c0.47-0.56,1.04-0.79,1.7-0.71
			c0.67,0.08,1.24,0.35,1.7,0.82c0.4,0.47,0.57,1.02,0.54,1.65c-0.04,0.62-0.26,1.18-0.65,1.65c-1.25,1.57-2.83,3.35-4.7,5.35
			c-1.89,2-3.91,4-6.06,6.01c-2.16,2-4.4,3.88-6.71,5.65c-2.31,1.76-4.61,3.15-6.88,4.18c-2.28,1.02-4.42,1.59-6.42,1.7
			c-2,0.11-3.78-0.45-5.35-1.7c-2.28-1.89-3.31-4.58-3.12-8.07c0.2-3.5,1.1-7.38,2.71-11.66c1.61-4.27,3.63-8.75,6.06-13.41
			c2.43-4.67,4.74-9.09,6.94-13.25c2.19-4.16,3.99-7.86,5.41-11.12c1.41-3.26,1.93-5.63,1.53-7.12c-0.24-0.71,0.13-1.34,1.11-1.89
			c0.99-0.55,2.15-0.8,3.48-0.77s2.64,0.47,3.94,1.29C60.45,165.91,61.3,167.35,61.69,169.39z" />
		</g>
		<path class="st2" d="M191.83,259.86c-8.81-0.16-15.96-1.41-21.37-3.75c-5.43-2.33-9.44-5.34-12.01-9.02
		c-2.58-3.69-3.84-7.83-3.76-12.46c0.07-4.63,1.18-9.39,3.35-14.31c1.23-2.62,2.88-5.55,4.99-8.77c2.1-3.24,4.66-6.53,7.64-9.89
		c2.98-3.35,6.41-6.64,10.29-9.88c3.86-3.23,8.23-6.1,13.12-8.59c4.89-2.5,10.26-4.52,16.09-6.08c5.83-1.56,12.14-2.38,18.94-2.46
		c5.29-0.08,10.21,0.92,14.76,3.01c4.54,2.09,7.84,4.86,9.87,8.29c1.89,2.86,3.05,6.12,3.46,9.75c0.4,3.65,0.27,7.67-0.41,12.1
		c-0.81,2.87-1.81,5.82-2.95,8.84c-1.16,3.03-2.68,6.02-4.59,8.96c-3.79,6.22-8.2,11.7-13.22,16.45
		c-6.11,5.33-12.56,9.5-19.35,12.53c-3.79,1.72-7.74,3.01-11.8,3.87c-4.08,0.86-8.15,1.33-12.23,1.41H191.83z M193.26,254.94
		c6.11,0.66,12.24-0.49,18.42-3.44c6.18-2.95,11.98-6.87,17.41-11.78c4.89-4.51,9.03-9.58,12.41-15.23
		c3.4-5.65,5.7-11.29,6.93-16.95c0.68-3.19,0.88-6.46,0.61-9.82c-0.27-3.36-1.13-6.4-2.55-9.14c-1.42-2.75-3.53-4.96-6.3-6.63
		c-2.78-1.68-6.28-2.39-10.49-2.15c-4.36,0.25-8.55,1.46-12.63,3.63c-4.08,2.17-7.9,4.97-11.5,8.4c-3.61,3.44-6.93,7.33-9.99,11.67
		c-3.05,4.34-5.8,8.79-8.23,13.38c-2.45,4.51-4.31,8.94-5.6,13.32c-1.29,4.39-1.81,8.31-1.52,11.79c0.27,3.48,1.42,6.38,3.46,8.72
		C185.72,253.05,188.92,254.45,193.26,254.94z" />
		<g>
			<g>
				<path class="st3" d="M183.23,41c-0.6-0.68,0.31-1.16,2.76-1.42s5.42-0.27,8.89-0.01c3.49,0.26,6.85,0.88,10.11,1.84
				c3.28,0.96,5.42,2.33,6.43,4.12c1.12,2.02,1.51,5.26,1.17,9.74c-0.32,4.47-1.16,9.43-2.5,14.9c-1.34,5.47-3.02,11.1-5.02,16.88
				c-2.02,5.8-4.14,11.05-6.4,15.78c-2.24,4.73-4.47,8.52-6.66,11.38c-2.21,2.87-4.11,4.15-5.7,3.85c-1.01-0.19-1.74-2.12-2.16-5.76
				c-0.42-3.65-0.65-8.23-0.64-13.72c0.01-5.5,0.11-11.43,0.35-17.78c0.24-6.34,0.41-12.34,0.5-17.99
				c0.11-5.65,0.13-10.48,0.08-14.52C184.38,44.26,183.98,41.82,183.23,41z" />
				<path class="st3" d="M201.3,133.91c-0.06,0.91-1.04,0.6-2.96-0.95c-1.92-1.54-4.02-3.64-6.29-6.28
				c-2.28-2.65-4.22-5.46-5.85-8.45c-1.64-3-2.18-5.48-1.64-7.46c0.64-2.22,2.66-4.79,6.06-7.71c3.39-2.94,7.49-5.85,12.3-8.77
				c4.81-2.92,9.98-5.71,15.49-8.39c5.53-2.67,10.74-4.88,15.68-6.63c4.93-1.76,9.19-2.87,12.76-3.34c3.59-0.46,5.84-0.03,6.75,1.31
				c0.58,0.85-0.27,2.73-2.55,5.6c-2.28,2.88-5.36,6.27-9.24,10.15c-3.89,3.89-8.16,8-12.82,12.33c-4.65,4.32-9.02,8.43-13.08,12.37
				c-4.07,3.92-7.51,7.32-10.32,10.21C202.79,130.79,201.35,132.79,201.3,133.91z" />
				<path class="st3" d="M263.11,54.27c0.8-0.44,1.06,0.56,0.77,3.01c-0.29,2.45-0.94,5.34-1.97,8.67c-1.03,3.34-2.38,6.48-4.04,9.45
				c-1.66,2.99-3.48,4.76-5.44,5.36c-2.22,0.64-5.47,0.3-9.75-1.03c-4.29-1.31-8.94-3.23-13.97-5.74s-10.15-5.41-15.35-8.64
				c-5.2-3.26-9.85-6.49-13.96-9.75c-4.11-3.24-7.32-6.25-9.62-9.02c-2.31-2.8-3.14-4.93-2.49-6.41c0.41-0.94,2.45-1.23,6.1-0.83
				c3.65,0.4,8.16,1.2,13.52,2.42c5.36,1.23,11.12,2.65,17.26,4.3c6.13,1.64,11.94,3.14,17.43,4.49c5.48,1.36,10.19,2.46,14.14,3.3
				C259.67,54.67,262.14,54.83,263.11,54.27z" />
			</g>
		</g>
	</g>
</svg>